<?xml version="1.0" encoding="utf-8"?>
<svg viewBox="0 0 462.5199890136719 462.5459899902344" width="462.5199890136719" height="462.5459899902344" overflow="visible" xmlns="http://www.w3.org/2000/svg">
  <defs>
    <radialGradient id="gradient-3" gradientUnits="userSpaceOnUse" cx="448.077" cy="226.951" r="230" gradientTransform="matrix(-0.767497, 0.503715, -0.43678, -0.665508, 802.167913, 128.602139)">
      <stop offset="0" style="stop-color: rgba(133, 164, 230, 1)"/>
      <stop offset="1" style="stop-color: rgba(19, 43, 105, 0.953);"/>
    </radialGradient>
    <radialGradient id="gradient-2" gradientUnits="userSpaceOnUse" cx="31.799" cy="309.479" r="231.09" gradientTransform="matrix(0.740642, 0.347903, -0.471223, 1.003171, 154.080763, -12.044391)">
      <stop offset="0" style="stop-color: rgba(209, 27, 27, 0.76);"/>
      <stop offset="1" style="stop-color: rgba(0, 0, 0, 1)"/>
    </radialGradient>
  </defs>
  <g transform="matrix(0.8197660446166992, 0, 0, 0.8197660446166992, 41.77254867553711, 10.74028301239013)">
    <g id="layer1">
      <g id="g2100">
        <circle id="path1366" cx="230" cy="231.565" r="230" style="fill: url(#gradient-3); fill-opacity: 0.75;"/>
        <path d="M247.09,0.664c99.647,5.197,189.384,82.819,209.828,180.264c18.801,81.356-10.646,171.379-74.43,225.417&#10;&#9;&#9;&#9;&#9;&#9;&#9;&#9;c-45.255,39.36-106.073,60.106-165.98,55.591c-94.876-3.852-181.74-74.166-207.295-165.361&#10;&#9;&#9;&#9;&#9;&#9;&#9;&#9;c-10.475-33.514-10.445-69.492-6.215-104.01C17.413,104.671,86.55,28.758,173.232,7.516&#10;&#9;&#9;&#9;&#9;&#9;&#9;&#9;C197.2,1.625,222.447-1.441,247.09,0.664z M282.59,14.85c42.271,20.75,68.405,68.82,62.41,115.59&#10;&#9;&#9;&#9;&#9;&#9;&#9;&#9;c-4.789,55.133-54.945,100.693-110.076,101.68c-46.156-1.424-91.676,27.277-108.445,70.59&#10;&#9;&#9;&#9;&#9;&#9;&#9;&#9;c-20.08,47.358-2.724,106.799,39.938,135.721c34.97,25.778,81.759,20.311,121.559,11.352&#10;&#9;&#9;&#9;&#9;&#9;&#9;&#9;c91.998-22.549,163.129-108.714,168.269-203.226c6.711-85.292-40.25-171.392-115.391-212.214&#10;&#9;&#9;&#9;&#9;&#9;&#9;&#9;c-18.817-10.162-45.538-22.039-63.142-22.283l1.947,1.191L282.59,14.85L282.59,14.85z M237.59,317.482&#10;&#9;&#9;&#9;&#9;&#9;&#9;&#9;c23.295,4.478,30.344,38.686,10.257,51.65c-20.586,16.035-52.913-5.777-44.799-31.188&#10;&#9;&#9;&#9;&#9;&#9;&#9;&#9;C206.774,323.319,222.959,314.094,237.59,317.482z M225.91,90.697c-28.562,3.572-29.325,49.348-0.806,53.67&#10;&#9;&#9;&#9;&#9;&#9;&#9;&#9;c22.57,5.914,42.185-22.295,28.877-41.521C248.33,94.286,236.294,87.498,225.91,90.697z" style="fill: url(#gradient-2);"/>
      </g>
    </g>
  </g>
  <path d="M 122.209 453.604 L 122.209 453.604 L 122.209 453.604 C 122.869 453.984 123.619 454.344 124.459 454.684 L 124.459 454.684 L 124.459 454.684 C 125.299 455.024 126.109 455.264 126.889 455.404 L 126.889 455.404 L 126.889 455.404 C 127.669 455.544 128.529 455.614 129.469 455.614 L 129.469 455.614 L 129.469 455.614 C 130.409 455.614 131.379 455.494 132.379 455.254 L 132.379 455.254 L 132.619 455.854 L 132.619 455.854 C 130.379 456.934 128.119 457.474 125.839 457.474 L 125.839 457.474 L 125.839 457.474 C 120.599 457.474 115.259 454.574 109.819 448.774 L 109.819 448.774 L 81.379 418.594 L 81.379 443.134 L 81.379 443.134 C 81.379 444.134 81.739 444.984 82.459 445.684 L 82.459 445.684 L 82.459 445.684 C 83.179 446.384 84.039 446.734 85.039 446.734 L 85.039 446.734 L 86.179 446.734 L 86.179 447.334 L 67.999 447.334 L 67.999 446.734 L 69.079 446.734 L 69.079 446.734 C 70.119 446.734 70.999 446.384 71.719 445.684 L 71.719 445.684 L 71.719 445.684 C 72.439 444.984 72.799 444.114 72.799 443.074 L 72.799 443.074 L 72.799 409.414 L 72.799 409.414 C 70.839 407.174 69.359 405.604 68.359 404.704 L 68.359 404.704 L 68.359 404.704 C 67.359 403.804 66.469 403.054 65.689 402.454 L 65.689 402.454 L 65.689 402.454 C 64.909 401.854 64.159 401.354 63.439 400.954 L 63.439 400.954 L 63.439 400.954 C 61.759 399.994 60.409 399.434 59.389 399.274 L 59.389 399.274 L 59.389 399.274 C 58.369 399.114 57.409 399.034 56.509 399.034 L 56.509 399.034 L 56.509 399.034 C 55.609 399.034 54.639 399.214 53.599 399.574 L 53.599 399.574 L 53.359 398.974 L 53.359 398.974 C 55.559 397.694 57.819 397.054 60.139 397.054 L 60.139 397.054 L 60.139 397.054 C 65.179 397.054 70.519 400.054 76.159 406.054 L 76.159 406.054 L 102.979 434.554 L 102.979 409.594 L 102.979 409.594 C 102.939 408.554 102.559 407.684 101.839 406.984 L 101.839 406.984 L 101.839 406.984 C 101.119 406.284 100.259 405.934 99.259 405.934 L 99.259 405.934 L 98.179 405.934 L 98.179 405.334 L 116.359 405.334 L 116.359 405.934 L 115.219 405.934 L 115.219 405.934 C 114.219 405.934 113.359 406.284 112.639 406.984 L 112.639 406.984 L 112.639 406.984 C 111.919 407.684 111.539 408.534 111.499 409.534 L 111.499 409.534 L 111.499 443.674 L 112.459 444.634 L 112.459 444.634 C 112.699 444.874 113.069 445.284 113.569 445.864 L 113.569 445.864 L 113.569 445.864 C 114.069 446.444 114.519 446.944 114.919 447.364 L 114.919 447.364 L 114.919 447.364 C 115.319 447.784 115.829 448.314 116.449 448.954 L 116.449 448.954 L 116.449 448.954 C 117.069 449.594 117.649 450.154 118.189 450.634 L 118.189 450.634 L 118.189 450.634 C 118.729 451.114 119.369 451.634 120.109 452.194 L 120.109 452.194 L 120.109 452.194 C 120.849 452.754 121.549 453.224 122.209 453.604 ZM 120.612 446.734 L 121.392 446.734 L 121.392 446.734 C 122.432 446.734 123.322 446.364 124.062 445.624 L 124.062 445.624 L 124.062 445.624 C 124.802 444.884 125.192 443.994 125.232 442.954 L 125.232 442.954 L 125.232 409.654 L 125.232 409.654 C 125.192 408.614 124.802 407.734 124.062 407.014 L 124.062 407.014 L 124.062 407.014 C 123.322 406.294 122.432 405.934 121.392 405.934 L 121.392 405.934 L 120.612 405.934 L 120.612 405.334 L 138.852 405.334 L 138.792 405.934 L 138.072 405.934 L 138.072 405.934 C 137.032 405.934 136.132 406.294 135.372 407.014 L 135.372 407.014 L 135.372 407.014 C 134.612 407.734 134.232 408.614 134.232 409.654 L 134.232 409.654 L 134.232 442.954 L 134.232 442.954 C 134.232 443.994 134.612 444.884 135.372 445.624 L 135.372 445.624 L 135.372 445.624 C 136.132 446.364 137.032 446.734 138.072 446.734 L 138.072 446.734 L 138.792 446.734 L 138.852 447.334 L 120.612 447.334 L 120.612 446.734 ZM 191.409 405.934 L 190.269 405.934 L 190.269 405.934 C 189.269 405.934 188.409 406.284 187.689 406.984 L 187.689 406.984 L 187.689 406.984 C 186.969 407.684 186.589 408.534 186.549 409.534 L 186.549 409.534 L 186.549 440.494 L 186.549 440.494 C 186.549 443.174 186.729 445.434 187.089 447.274 L 187.089 447.274 L 187.269 448.174 L 186.729 448.174 L 156.429 419.314 L 156.429 443.134 L 156.429 443.134 C 156.429 444.134 156.789 444.984 157.509 445.684 L 157.509 445.684 L 157.509 445.684 C 158.229 446.384 159.089 446.734 160.089 446.734 L 160.089 446.734 L 161.229 446.734 L 161.229 447.334 L 143.049 447.334 L 143.049 446.734 L 144.129 446.734 L 144.129 446.734 C 145.169 446.734 146.049 446.384 146.769 445.684 L 146.769 445.684 L 146.769 445.684 C 147.489 444.984 147.849 444.114 147.849 443.074 L 147.849 443.074 L 147.849 411.934 L 147.849 411.934 C 147.849 409.294 147.669 407.094 147.309 405.334 L 147.309 405.334 L 147.189 404.434 L 147.729 404.434 L 178.029 433.294 L 178.029 409.594 L 178.029 409.594 C 177.989 408.554 177.609 407.684 176.889 406.984 L 176.889 406.984 L 176.889 406.984 C 176.169 406.284 175.309 405.934 174.309 405.934 L 174.309 405.934 L 173.229 405.934 L 173.229 405.334 L 191.409 405.334 L 191.409 405.934 ZM 194.702 446.734 L 195.482 446.734 L 195.482 446.734 C 196.522 446.734 197.412 446.364 198.152 445.624 L 198.152 445.624 L 198.152 445.624 C 198.892 444.884 199.282 443.994 199.322 442.954 L 199.322 442.954 L 199.322 409.534 L 199.322 409.534 C 199.202 408.134 198.542 407.094 197.342 406.414 L 197.342 406.414 L 197.342 406.414 C 196.742 406.094 196.122 405.934 195.482 405.934 L 195.482 405.934 L 194.702 405.934 L 194.702 405.334 L 217.682 405.334 L 217.682 405.334 C 218.922 405.334 220.282 405.214 221.762 404.974 L 221.762 404.974 L 221.762 404.974 C 223.242 404.734 224.282 404.494 224.882 404.254 L 224.882 404.254 L 224.882 414.754 L 224.282 414.754 L 224.282 414.034 L 224.282 414.034 C 224.282 412.234 223.752 410.784 222.692 409.684 L 222.692 409.684 L 222.692 409.684 C 221.632 408.584 220.202 407.994 218.402 407.914 L 218.402 407.914 L 208.322 407.914 L 208.322 425.374 L 216.242 425.374 L 216.242 425.374 C 217.722 425.334 218.942 424.824 219.902 423.844 L 219.902 423.844 L 219.902 423.844 C 220.862 422.864 221.342 421.654 221.342 420.214 L 221.342 420.214 L 221.342 419.674 L 221.942 419.674 L 221.942 433.534 L 221.342 433.534 L 221.342 433.054 L 221.342 433.054 C 221.342 431.054 220.542 429.574 218.942 428.614 L 218.942 428.614 L 218.942 428.614 C 218.142 428.174 217.262 427.934 216.302 427.894 L 216.302 427.894 L 208.322 427.894 L 208.322 444.754 L 216.182 444.754 L 216.182 444.754 C 219.102 444.754 221.552 443.914 223.532 442.234 L 223.532 442.234 L 223.532 442.234 C 225.512 440.554 226.982 438.174 227.942 435.094 L 227.942 435.094 L 228.542 435.094 L 225.782 447.334 L 194.702 447.334 L 194.702 446.734 ZM 235.137 429.874 L 235.677 430.294 L 235.677 430.294 C 234.077 432.854 233.277 435.474 233.277 438.154 L 233.277 438.154 L 233.277 438.154 C 233.277 441.074 234.337 443.734 236.457 446.134 L 236.457 446.134 L 236.457 446.134 C 237.617 447.494 239.087 448.554 240.867 449.314 L 240.867 449.314 L 240.867 449.314 C 242.647 450.074 244.597 450.454 246.717 450.454 L 246.717 450.454 L 246.717 450.454 C 248.837 450.454 250.737 450.054 252.417 449.254 L 252.417 449.254 L 252.417 449.254 C 255.777 447.614 257.457 444.934 257.457 441.214 L 257.457 441.214 L 257.457 441.214 C 257.457 439.814 256.987 438.334 256.047 436.774 L 256.047 436.774 L 256.047 436.774 C 255.107 435.214 253.697 433.814 251.817 432.574 L 251.817 432.574 L 241.617 425.734 L 241.617 425.734 C 237.657 423.254 235.677 420.054 235.677 416.134 L 235.677 416.134 L 235.677 416.134 C 235.677 415.734 235.697 415.334 235.737 414.934 L 235.737 414.934 L 235.737 414.934 C 235.977 411.854 237.207 409.344 239.427 407.404 L 239.427 407.404 L 239.427 407.404 C 241.647 405.464 244.617 404.494 248.337 404.494 L 248.337 404.494 L 248.337 404.494 C 250.617 404.494 253.377 404.694 256.617 405.094 L 256.617 405.094 L 260.337 405.094 L 259.557 413.914 L 259.017 413.914 L 259.017 413.914 C 258.977 411.834 258.177 410.164 256.617 408.904 L 256.617 408.904 L 256.617 408.904 C 255.057 407.644 252.997 407.014 250.437 407.014 L 250.437 407.014 L 250.437 407.014 C 247.317 407.014 245.057 407.954 243.657 409.834 L 243.657 409.834 L 243.657 409.834 C 242.977 410.794 242.637 411.834 242.637 412.954 L 242.637 412.954 L 242.637 412.954 C 242.637 414.074 242.977 415.024 243.657 415.804 L 243.657 415.804 L 243.657 415.804 C 244.337 416.584 245.417 417.434 246.897 418.354 L 246.897 418.354 L 258.117 425.674 L 258.117 425.674 C 260.397 427.154 262.177 428.894 263.457 430.894 L 263.457 430.894 L 263.457 430.894 C 264.977 433.254 265.737 435.674 265.737 438.154 L 265.737 438.154 L 265.737 438.154 C 265.737 439.754 265.407 441.444 264.747 443.224 L 264.747 443.224 L 264.747 443.224 C 264.087 445.004 263.007 446.654 261.507 448.174 L 261.507 448.174 L 261.507 448.174 C 260.007 449.694 258.077 450.934 255.717 451.894 L 255.717 451.894 L 255.717 451.894 C 253.357 452.854 250.747 453.334 247.887 453.334 L 247.887 453.334 L 247.887 453.334 C 245.027 453.334 242.437 452.834 240.117 451.834 L 240.117 451.834 L 240.117 451.834 C 235.837 450.034 233.117 446.894 231.957 442.414 L 231.957 442.414 L 231.957 442.414 C 231.717 441.454 231.597 440.454 231.597 439.414 L 231.597 439.414 L 231.597 439.414 C 231.597 436.054 232.777 432.874 235.137 429.874 L 235.137 429.874 ZM 299.992 407.794 L 291.952 407.794 L 291.952 443.014 L 291.952 443.014 C 291.992 444.054 292.382 444.934 293.122 445.654 L 293.122 445.654 L 293.122 445.654 C 293.862 446.374 294.752 446.734 295.792 446.734 L 295.792 446.734 L 296.512 446.734 L 296.572 447.334 L 278.332 447.334 L 278.332 446.734 L 279.112 446.734 L 279.112 446.734 C 280.112 446.734 280.982 446.374 281.722 445.654 L 281.722 445.654 L 281.722 445.654 C 282.462 444.934 282.872 444.074 282.952 443.074 L 282.952 443.074 L 282.952 407.794 L 274.852 407.794 L 274.852 407.794 C 273.012 407.834 271.552 408.414 270.472 409.534 L 270.472 409.534 L 270.472 409.534 C 269.392 410.654 268.852 412.114 268.852 413.914 L 268.852 413.914 L 268.852 414.634 L 268.252 414.634 L 268.252 404.194 L 268.252 404.194 C 268.812 404.434 269.822 404.674 271.282 404.914 L 271.282 404.914 L 271.282 404.914 C 272.742 405.154 274.092 405.274 275.332 405.274 L 275.332 405.274 L 299.512 405.274 L 299.512 405.274 C 301.472 405.234 303.072 405.074 304.312 404.794 L 304.312 404.794 L 304.312 404.794 C 305.552 404.514 306.312 404.314 306.592 404.194 L 306.592 404.194 L 306.592 414.634 L 305.992 414.634 L 305.992 413.914 L 305.992 413.914 C 305.992 412.114 305.452 410.654 304.372 409.534 L 304.372 409.534 L 304.372 409.534 C 303.292 408.414 301.832 407.834 299.992 407.794 L 299.992 407.794 ZM 347.747 446.734 L 347.747 446.734 L 348.287 446.734 L 348.287 447.334 L 329.147 447.334 L 329.147 446.734 L 329.687 446.734 L 329.687 446.734 C 330.567 446.734 331.217 446.464 331.637 445.924 L 331.637 445.924 L 331.637 445.924 C 332.057 445.384 332.267 444.874 332.267 444.394 L 332.267 444.394 L 332.267 444.394 C 332.267 443.914 332.167 443.434 331.967 442.954 L 331.967 442.954 L 329.027 435.574 L 314.987 435.574 L 311.867 442.954 L 311.867 442.954 C 311.667 443.474 311.567 443.964 311.567 444.424 L 311.567 444.424 L 311.567 444.424 C 311.567 444.884 311.777 445.384 312.197 445.924 L 312.197 445.924 L 312.197 445.924 C 312.617 446.464 313.287 446.734 314.207 446.734 L 314.207 446.734 L 314.687 446.734 L 314.687 447.334 L 301.847 447.334 L 301.847 446.734 L 302.387 446.734 L 302.387 446.734 C 303.307 446.734 304.227 446.454 305.147 445.894 L 305.147 445.894 L 305.147 445.894 C 306.067 445.334 306.827 444.494 307.427 443.374 L 307.427 443.374 L 321.287 411.994 L 321.287 411.994 C 323.167 408.034 324.167 405.414 324.287 404.134 L 324.287 404.134 L 324.827 404.134 L 342.647 443.254 L 342.647 443.254 C 343.247 444.414 344.007 445.284 344.927 445.864 L 344.927 445.864 L 344.927 445.864 C 345.847 446.444 346.787 446.734 347.747 446.734 Z M 322.187 418.294 L 316.007 433.054 L 328.007 433.054 L 322.187 418.294 ZM 365.561 407.974 L 365.561 407.974 L 362.981 407.974 L 362.981 407.974 C 362.901 407.974 362.841 407.974 362.801 407.974 L 362.801 407.974 L 362.801 442.954 L 362.801 442.954 C 362.841 444.434 363.481 445.534 364.721 446.254 L 364.721 446.254 L 364.721 446.254 C 365.321 446.574 365.961 446.734 366.641 446.734 L 366.641 446.734 L 367.421 446.734 L 367.421 447.334 L 349.181 447.334 L 349.181 446.734 L 349.961 446.734 L 349.961 446.734 C 351.401 446.734 352.501 446.114 353.261 444.874 L 353.261 444.874 L 353.261 444.874 C 353.581 444.314 353.761 443.694 353.801 443.014 L 353.801 443.014 L 353.801 409.714 L 353.801 409.714 C 353.761 408.674 353.371 407.784 352.631 407.044 L 352.631 407.044 L 352.631 407.044 C 351.891 406.304 351.001 405.934 349.961 405.934 L 349.961 405.934 L 349.181 405.934 L 349.181 405.334 L 369.761 405.334 L 369.761 405.334 C 373.641 405.334 376.921 406.174 379.601 407.854 L 379.601 407.854 L 379.601 407.854 C 380.961 408.694 382.041 409.864 382.841 411.364 L 382.841 411.364 L 382.841 411.364 C 383.641 412.864 384.041 414.564 384.041 416.464 L 384.041 416.464 L 384.041 416.464 C 384.041 418.364 383.711 420.114 383.051 421.714 L 383.051 421.714 L 383.051 421.714 C 382.391 423.314 381.291 424.714 379.751 425.914 L 379.751 425.914 L 379.751 425.914 C 378.211 427.114 376.361 427.834 374.201 428.074 L 374.201 428.074 L 374.201 428.074 C 376.521 428.834 378.561 430.594 380.321 433.354 L 380.321 433.354 L 380.321 433.354 C 384.641 440.274 387.841 444.394 389.921 445.714 L 389.921 445.714 L 389.921 445.714 C 390.961 446.354 392.261 446.694 393.821 446.734 L 393.821 446.734 L 393.821 447.334 L 387.941 447.334 L 387.941 447.334 C 384.541 447.334 381.701 446.864 379.421 445.924 L 379.421 445.924 L 379.421 445.924 C 377.141 444.984 375.281 443.374 373.841 441.094 L 373.841 441.094 L 373.841 441.094 C 373.121 439.934 372.201 438.184 371.081 435.844 L 371.081 435.844 L 371.081 435.844 C 369.961 433.504 369.221 431.834 368.861 430.834 L 368.861 430.834 L 368.861 430.834 C 367.781 428.434 366.421 427.094 364.781 426.814 L 364.781 426.814 L 364.781 426.214 L 366.641 426.214 L 366.641 426.214 C 368.441 426.214 370.031 425.674 371.411 424.594 L 371.411 424.594 L 371.411 424.594 C 372.791 423.514 373.721 421.754 374.201 419.314 L 374.201 419.314 L 374.201 419.314 C 374.361 418.474 374.441 417.814 374.441 417.334 L 374.441 417.334 L 374.441 417.334 C 374.441 414.054 373.781 411.684 372.461 410.224 L 372.461 410.224 L 372.461 410.224 C 371.141 408.764 369.441 408.014 367.361 407.974 L 367.361 407.974 L 367.361 407.974 C 366.961 407.974 366.361 407.974 365.561 407.974 Z" transform="matrix(1, 0, 0, 1, 0, -7.105427357601002e-15)" style="white-space: pre; stroke: rgb(10, 10, 10); fill: rgb(157, 39, 48);"/>
</svg>